<svg width="24" height="24" viewBox="0 0 24 24" fill="none" xmlns="http://www.w3.org/2000/svg">
<g clip-path="url(#clip0_1644_24105)">
<path fill-rule="evenodd" clip-rule="evenodd" d="M23.4667 12.2672C23.4667 11.4672 23.3333 10.5339 23.2 9.86719H12V14.5339H18.4C18.1333 16.0005 17.3333 17.2005 16 18.1339V21.2005H20C22.2667 19.0672 23.4667 15.8672 23.4667 12.2672Z" fill="#4285F4"/>
<path fill-rule="evenodd" clip-rule="evenodd" d="M12.0002 24.0004C15.2002 24.0004 18.0002 22.9337 20.0002 21.0671L16.0002 18.1337C14.9335 18.8004 13.6002 19.3337 12.0002 19.3337C8.9335 19.3337 6.26683 17.2004 5.3335 14.4004H1.3335V17.3337C3.20016 21.3337 7.3335 24.0004 12.0002 24.0004Z" fill="#34A853"/>
<path fill-rule="evenodd" clip-rule="evenodd" d="M5.33333 14.266C5.06667 13.5993 4.93333 12.7993 4.93333 11.9993C4.93333 11.1993 5.06667 10.3993 5.33333 9.73268V6.66602H1.33333C0.533333 8.26602 0 10.1327 0 11.9993C0 13.866 0.4 15.7327 1.33333 17.3327L5.33333 14.266Z" fill="#FBBC05"/>
<path fill-rule="evenodd" clip-rule="evenodd" d="M12.0002 4.8C13.7335 4.8 15.3335 5.46667 16.5335 6.53333L20.0002 3.06667C18.0002 1.2 15.2002 0 12.0002 0C7.3335 0 3.20016 2.66667 1.3335 6.66667L5.3335 9.73333C6.26683 6.93333 8.9335 4.8 12.0002 4.8Z" fill="#EA4335"/>
</g>
<defs>
<clipPath id="clip0_1644_24105">
<rect width="24" height="24" fill="white"/>
</clipPath>
</defs>
</svg>
